# SSAO demo mesh
v -15.000000 -15.000000 -15.000000
v 15.000000 -15.000000 -15.000000
v 15.000000 15.000000 -15.000000
v -15.000000 15.000000 -15.000000
v -15.000000 -15.000000 15.000000
v 15.000000 -15.000000 15.000000
v 15.000000 15.000000 15.000000
v -15.000000 15.000000 15.000000
v -15.000000 -15.000000 -15.000000
v -15.000000 15.000000 -15.000000
v -15.000000 15.000000 15.000000
v -15.000000 -15.000000 15.000000
v 15.000000 -15.000000 -15.000000
v 15.000000 15.000000 -15.000000
v 15.000000 15.000000 15.000000
v 15.000000 -15.000000 15.000000
v -15.000000 -15.000000 -15.000000
v -15.000000 -15.000000 15.000000
v 15.000000 -15.000000 15.000000
v 15.000000 -15.000000 -15.000000
v -15.000000 15.000000 -15.000000
v -15.000000 15.000000 15.000000
v 15.000000 15.000000 15.000000
v 15.000000 15.000000 -15.000000
f 1 4 3
f 1 3 2
f 5 6 7
f 5 7 8
f 9 12 11
f 9 11 10
f 13 14 15
f 13 15 16
f 17 20 19
f 17 19 18
f 21 22 23
f 21 23 24
