# SSAO demo mesh
v 0.000000 22.000000 0.000000
v 6.798374 20.923243 0.000000
v 6.465638 20.923243 2.100813
v 5.500000 20.923243 3.995984
v 3.995984 20.923243 5.500000
v 2.100813 20.923243 6.465638
v 0.000000 20.923243 6.798374
v -2.100813 20.923243 6.465638
v -3.995984 20.923243 5.500000
v -5.500000 20.923243 3.995984
v -6.465638 20.923243 2.100813
v -6.798374 20.923243 0.000000
v -6.465638 20.923243 -2.100813
v -5.500000 20.923243 -3.995984
v -3.995984 20.923243 -5.500000
v -2.100813 20.923243 -6.465638
v -0.000000 20.923243 -6.798374
v 2.100813 20.923243 -6.465638
v 3.995984 20.923243 -5.500000
v 5.500000 20.923243 -3.995984
v 6.465638 20.923243 -2.100813
v 12.931276 17.798374 0.000000
v 12.298374 17.798374 3.995984
v 10.461622 17.798374 7.600813
v 7.600813 17.798374 10.461622
v 3.995984 17.798374 12.298374
v 0.000000 17.798374 12.931276
v -3.995984 17.798374 12.298374
v -7.600813 17.798374 10.461622
v -10.461622 17.798374 7.600813
v -12.298374 17.798374 3.995984
v -12.931276 17.798374 0.000000
v -12.298374 17.798374 -3.995984
v -10.461622 17.798374 -7.600813
v -7.600813 17.798374 -10.461622
v -3.995984 17.798374 -12.298374
v -0.000000 17.798374 -12.931276
v 3.995984 17.798374 -12.298374
v 7.600813 17.798374 -10.461622
v 10.461622 17.798374 -7.600813
v 12.298374 17.798374 -3.995984
v 17.798374 12.931276 0.000000
v 16.927259 12.931276 5.500000
v 14.399187 12.931276 10.461622
v 10.461622 12.931276 14.399187
v 5.500000 12.931276 16.927259
v 0.000000 12.931276 17.798374
v -5.500000 12.931276 16.927259
v -10.461622 12.931276 14.399187
v -14.399187 12.931276 10.461622
v -16.927259 12.931276 5.500000
v -17.798374 12.931276 0.000000
v -16.927259 12.931276 -5.500000
v -14.399187 12.931276 -10.461622
v -10.461622 12.931276 -14.399187
v -5.500000 12.931276 -16.927259
v -0.000000 12.931276 -17.798374
v 5.500000 12.931276 -16.927259
v 10.461622 12.931276 -14.399187
v 14.399187 12.931276 -10.461622
v 16.927259 12.931276 -5.500000
v 20.923243 6.798374 0.000000
v 19.899187 6.798374 6.465638
v 16.927259 6.798374 12.298374
v 12.298374 6.798374 16.927259
v 6.465638 6.798374 19.899187
v 0.000000 6.798374 20.923243
v -6.465638 6.798374 19.899187
v -12.298374 6.798374 16.927259
v -16.927259 6.798374 12.298374
v -19.899187 6.798374 6.465638
v -20.923243 6.798374 0.000000
v -19.899187 6.798374 -6.465638
v -16.927259 6.798374 -12.298374
v -12.298374 6.798374 -16.927259
v -6.465638 6.798374 -19.899187
v -0.000000 6.798374 -20.923243
v 6.465638 6.798374 -19.899187
v 12.298374 6.798374 -16.927259
v 16.927259 6.798374 -12.298374
v 19.899187 6.798374 -6.465638
v 22.000000 0.000000 0.000000
v 20.923243 0.000000 6.798374
v 17.798374 0.000000 12.931276
v 12.931276 0.000000 17.798374
v 6.798374 0.000000 20.923243
v 0.000000 0.000000 22.000000
v -6.798374 0.000000 20.923243
v -12.931276 0.000000 17.798374
v -17.798374 0.000000 12.931276
v -20.923243 0.000000 6.798374
v -22.000000 0.000000 0.000000
v -20.923243 0.000000 -6.798374
v -17.798374 0.000000 -12.931276
v -12.931276 0.000000 -17.798374
v -6.798374 0.000000 -20.923243
v -0.000000 0.000000 -22.000000
v 6.798374 0.000000 -20.923243
v 12.931276 0.000000 -17.798374
v 17.798374 0.000000 -12.931276
v 20.923243 0.000000 -6.798374
v 20.923243 -6.798374 0.000000
v 19.899187 -6.798374 6.465638
v 16.927259 -6.798374 12.298374
v 12.298374 -6.798374 16.927259
v 6.465638 -6.798374 19.899187
v 0.000000 -6.798374 20.923243
v -6.465638 -6.798374 19.899187
v -12.298374 -6.798374 16.927259
v -16.927259 -6.798374 12.298374
v -19.899187 -6.798374 6.465638
v -20.923243 -6.798374 0.000000
v -19.899187 -6.798374 -6.465638
v -16.927259 -6.798374 -12.298374
v -12.298374 -6.798374 -16.927259
v -6.465638 -6.798374 -19.899187
v -0.000000 -6.798374 -20.923243
v 6.465638 -6.798374 -19.899187
v 12.298374 -6.798374 -16.927259
v 16.927259 -6.798374 -12.298374
v 19.899187 -6.798374 -6.465638
v 17.798374 -12.931276 0.000000
v 16.927259 -12.931276 5.500000
v 14.399187 -12.931276 10.461622
v 10.461622 -12.931276 14.399187
v 5.500000 -12.931276 16.927259
v 0.000000 -12.931276 17.798374
v -5.500000 -12.931276 16.927259
v -10.461622 -12.931276 14.399187
v -14.399187 -12.931276 10.461622
v -16.927259 -12.931276 5.500000
v -17.798374 -12.931276 0.000000
v -16.927259 -12.931276 -5.500000
v -14.399187 -12.931276 -10.461622
v -10.461622 -12.931276 -14.399187
v -5.500000 -12.931276 -16.927259
v -0.000000 -12.931276 -17.798374
v 5.500000 -12.931276 -16.927259
v 10.461622 -12.931276 -14.399187
v 14.399187 -12.931276 -10.461622
v 16.927259 -12.931276 -5.500000
v 12.931276 -17.798374 0.000000
v 12.298374 -17.798374 3.995984
v 10.461622 -17.798374 7.600813
v 7.600813 -17.798374 10.461622
v 3.995984 -17.798374 12.298374
v 0.000000 -17.798374 12.931276
v -3.995984 -17.798374 12.298374
v -7.600813 -17.798374 10.461622
v -10.461622 -17.798374 7.600813
v -12.298374 -17.798374 3.995984
v -12.931276 -17.798374 0.000000
v -12.298374 -17.798374 -3.995984
v -10.461622 -17.798374 -7.600813
v -7.600813 -17.798374 -10.461622
v -3.995984 -17.798374 -12.298374
v -0.000000 -17.798374 -12.931276
v 3.995984 -17.798374 -12.298374
v 7.600813 -17.798374 -10.461622
v 10.461622 -17.798374 -7.600813
v 12.298374 -17.798374 -3.995984
v 6.798374 -20.923243 0.000000
v 6.465638 -20.923243 2.100813
v 5.500000 -20.923243 3.995984
v 3.995984 -20.923243 5.500000
v 2.100813 -20.923243 6.465638
v 0.000000 -20.923243 6.798374
v -2.100813 -20.923243 6.465638
v -3.995984 -20.923243 5.500000
v -5.500000 -20.923243 3.995984
v -6.465638 -20.923243 2.100813
v -6.798374 -20.923243 0.000000
v -6.465638 -20.923243 -2.100813
v -5.500000 -20.923243 -3.995984
v -3.995984 -20.923243 -5.500000
v -2.100813 -20.923243 -6.465638
v -0.000000 -20.923243 -6.798374
v 2.100813 -20.923243 -6.465638
v 3.995984 -20.923243 -5.500000
v 5.500000 -20.923243 -3.995984
v 6.465638 -20.923243 -2.100813
v 0.000000 -22.000000 0.000000
f 1 3 2
f 1 4 3
f 1 5 4
f 1 6 5
f 1 7 6
f 1 8 7
f 1 9 8
f 1 10 9
f 1 11 10
f 1 12 11
f 1 13 12
f 1 14 13
f 1 15 14
f 1 16 15
f 1 17 16
f 1 18 17
f 1 19 18
f 1 20 19
f 1 21 20
f 1 2 21
f 2 3 22
f 3 23 22
f 3 4 23
f 4 24 23
f 4 5 24
f 5 25 24
f 5 6 25
f 6 26 25
f 6 7 26
f 7 27 26
f 7 8 27
f 8 28 27
f 8 9 28
f 9 29 28
f 9 10 29
f 10 30 29
f 10 11 30
f 11 31 30
f 11 12 31
f 12 32 31
f 12 13 32
f 13 33 32
f 13 14 33
f 14 34 33
f 14 15 34
f 15 35 34
f 15 16 35
f 16 36 35
f 16 17 36
f 17 37 36
f 17 18 37
f 18 38 37
f 18 19 38
f 19 39 38
f 19 20 39
f 20 40 39
f 20 21 40
f 21 41 40
f 21 2 41
f 2 22 41
f 22 23 42
f 23 43 42
f 23 24 43
f 24 44 43
f 24 25 44
f 25 45 44
f 25 26 45
f 26 46 45
f 26 27 46
f 27 47 46
f 27 28 47
f 28 48 47
f 28 29 48
f 29 49 48
f 29 30 49
f 30 50 49
f 30 31 50
f 31 51 50
f 31 32 51
f 32 52 51
f 32 33 52
f 33 53 52
f 33 34 53
f 34 54 53
f 34 35 54
f 35 55 54
f 35 36 55
f 36 56 55
f 36 37 56
f 37 57 56
f 37 38 57
f 38 58 57
f 38 39 58
f 39 59 58
f 39 40 59
f 40 60 59
f 40 41 60
f 41 61 60
f 41 22 61
f 22 42 61
f 42 43 62
f 43 63 62
f 43 44 63
f 44 64 63
f 44 45 64
f 45 65 64
f 45 46 65
f 46 66 65
f 46 47 66
f 47 67 66
f 47 48 67
f 48 68 67
f 48 49 68
f 49 69 68
f 49 50 69
f 50 70 69
f 50 51 70
f 51 71 70
f 51 52 71
f 52 72 71
f 52 53 72
f 53 73 72
f 53 54 73
f 54 74 73
f 54 55 74
f 55 75 74
f 55 56 75
f 56 76 75
f 56 57 76
f 57 77 76
f 57 58 77
f 58 78 77
f 58 59 78
f 59 79 78
f 59 60 79
f 60 80 79
f 60 61 80
f 61 81 80
f 61 42 81
f 42 62 81
f 62 63 82
f 63 83 82
f 63 64 83
f 64 84 83
f 64 65 84
f 65 85 84
f 65 66 85
f 66 86 85
f 66 67 86
f 67 87 86
f 67 68 87
f 68 88 87
f 68 69 88
f 69 89 88
f 69 70 89
f 70 90 89
f 70 71 90
f 71 91 90
f 71 72 91
f 72 92 91
f 72 73 92
f 73 93 92
f 73 74 93
f 74 94 93
f 74 75 94
f 75 95 94
f 75 76 95
f 76 96 95
f 76 77 96
f 77 97 96
f 77 78 97
f 78 98 97
f 78 79 98
f 79 99 98
f 79 80 99
f 80 100 99
f 80 81 100
f 81 101 100
f 81 62 101
f 62 82 101
f 82 83 102
f 83 103 102
f 83 84 103
f 84 104 103
f 84 85 104
f 85 105 104
f 85 86 105
f 86 106 105
f 86 87 106
f 87 107 106
f 87 88 107
f 88 108 107
f 88 89 108
f 89 109 108
f 89 90 109
f 90 110 109
f 90 91 110
f 91 111 110
f 91 92 111
f 92 112 111
f 92 93 112
f 93 113 112
f 93 94 113
f 94 114 113
f 94 95 114
f 95 115 114
f 95 96 115
f 96 116 115
f 96 97 116
f 97 117 116
f 97 98 117
f 98 118 117
f 98 99 118
f 99 119 118
f 99 100 119
f 100 120 119
f 100 101 120
f 101 121 120
f 101 82 121
f 82 102 121
f 102 103 122
f 103 123 122
f 103 104 123
f 104 124 123
f 104 105 124
f 105 125 124
f 105 106 125
f 106 126 125
f 106 107 126
f 107 127 126
f 107 108 127
f 108 128 127
f 108 109 128
f 109 129 128
f 109 110 129
f 110 130 129
f 110 111 130
f 111 131 130
f 111 112 131
f 112 132 131
f 112 113 132
f 113 133 132
f 113 114 133
f 114 134 133
f 114 115 134
f 115 135 134
f 115 116 135
f 116 136 135
f 116 117 136
f 117 137 136
f 117 118 137
f 118 138 137
f 118 119 138
f 119 139 138
f 119 120 139
f 120 140 139
f 120 121 140
f 121 141 140
f 121 102 141
f 102 122 141
f 122 123 142
f 123 143 142
f 123 124 143
f 124 144 143
f 124 125 144
f 125 145 144
f 125 126 145
f 126 146 145
f 126 127 146
f 127 147 146
f 127 128 147
f 128 148 147
f 128 129 148
f 129 149 148
f 129 130 149
f 130 150 149
f 130 131 150
f 131 151 150
f 131 132 151
f 132 152 151
f 132 133 152
f 133 153 152
f 133 134 153
f 134 154 153
f 134 135 154
f 135 155 154
f 135 136 155
f 136 156 155
f 136 137 156
f 137 157 156
f 137 138 157
f 138 158 157
f 138 139 158
f 139 159 158
f 139 140 159
f 140 160 159
f 140 141 160
f 141 161 160
f 141 122 161
f 122 142 161
f 142 143 162
f 143 163 162
f 143 144 163
f 144 164 163
f 144 145 164
f 145 165 164
f 145 146 165
f 146 166 165
f 146 147 166
f 147 167 166
f 147 148 167
f 148 168 167
f 148 149 168
f 149 169 168
f 149 150 169
f 150 170 169
f 150 151 170
f 151 171 170
f 151 152 171
f 152 172 171
f 152 153 172
f 153 173 172
f 153 154 173
f 154 174 173
f 154 155 174
f 155 175 174
f 155 156 175
f 156 176 175
f 156 157 176
f 157 177 176
f 157 158 177
f 158 178 177
f 158 159 178
f 159 179 178
f 159 160 179
f 160 180 179
f 160 161 180
f 161 181 180
f 161 142 181
f 142 162 181
f 162 163 182
f 163 164 182
f 164 165 182
f 165 166 182
f 166 167 182
f 167 168 182
f 168 169 182
f 169 170 182
f 170 171 182
f 171 172 182
f 172 173 182
f 173 174 182
f 174 175 182
f 175 176 182
f 176 177 182
f 177 178 182
f 178 179 182
f 179 180 182
f 180 181 182
f 181 162 182
